<svg id="visual" viewBox="0 0 960 540" width="960" height="540" xmlns="http://www.w3.org/2000/svg" xmlns:xlink="http://www.w3.org/1999/xlink" version="1.1"><rect x="0" y="0" width="960" height="540" fill="#222222"></rect><defs><linearGradient id="grad1_0" x1="43.8%" y1="100%" x2="100%" y2="0%"><stop offset="14.444444444444446%" stop-color="#222222" stop-opacity="1"></stop><stop offset="85.55555555555554%" stop-color="#222222" stop-opacity="1"></stop></linearGradient></defs><defs><linearGradient id="grad2_0" x1="0%" y1="100%" x2="56.3%" y2="0%"><stop offset="14.444444444444446%" stop-color="#222222" stop-opacity="1"></stop><stop offset="85.55555555555554%" stop-color="#222222" stop-opacity="1"></stop></linearGradient></defs><g transform="translate(960, 540)"><path d="M-324 0C-276.4 -25.2 -228.8 -50.4 -218 -90.3C-207.3 -130.2 -233.5 -184.7 -223.4 -223.4C-213.4 -262.2 -167.3 -285.2 -124 -299.3C-80.7 -313.5 -40.4 -318.7 0 -324L0 0Z" fill="#47A992"></path></g><g transform="translate(0, 0)"><path d="M324 0C318.7 46.1 313.3 92.1 286.4 118.6C259.5 145.2 211 152.2 183.8 183.8C156.7 215.5 151.1 271.9 124 299.3C96.9 326.8 48.5 325.4 0 324L0 0Z" fill="#47A992"></path></g></svg>